<svg width="53" height="53" viewBox="0 0 53 53" fill="none" xmlns="http://www.w3.org/2000/svg">
<path d="M47.1111 0C48.6729 0 50.1708 0.620435 51.2752 1.72482C52.3796 2.8292 53 4.32706 53 5.88889V47.1111C53 48.6729 52.3796 50.1708 51.2752 51.2752C50.1708 52.3796 48.6729 53 47.1111 53H5.88889C4.32706 53 2.8292 52.3796 1.72482 51.2752C0.620435 50.1708 0 48.6729 0 47.1111V5.88889C0 4.32706 0.620435 2.8292 1.72482 1.72482C2.8292 0.620435 4.32706 0 5.88889 0H47.1111ZM45.6389 45.6389V30.0333C45.6389 27.4876 44.6276 25.046 42.8274 23.2459C41.0273 21.4458 38.5858 20.4344 36.04 20.4344C33.5372 20.4344 30.6222 21.9656 29.2089 24.2622V20.9939H20.9939V45.6389H29.2089V31.1228C29.2089 28.8556 31.0344 27.0006 33.3017 27.0006C34.395 27.0006 35.4435 27.4349 36.2165 28.2079C36.9896 28.981 37.4239 30.0295 37.4239 31.1228V45.6389H45.6389ZM11.4244 16.3711C12.7364 16.3711 13.9946 15.8499 14.9223 14.9223C15.8499 13.9946 16.3711 12.7364 16.3711 11.4244C16.3711 8.68611 14.1628 6.44833 11.4244 6.44833C10.1047 6.44833 8.83901 6.9726 7.9058 7.9058C6.9726 8.83901 6.44833 10.1047 6.44833 11.4244C6.44833 14.1628 8.68611 16.3711 11.4244 16.3711ZM15.5172 45.6389V20.9939H7.36111V45.6389H15.5172Z" fill="white"/>
</svg>
