<svg fill="none" xmlns="http://www.w3.org/2000/svg" viewBox="4.5 4.5 27 27">
<path d="M10.6875 7.875C9.135 7.875 7.875 9.135 7.875 10.6875V25.3125C7.875 26.865 9.135 28.125 10.6875 28.125H25.3125C26.865 28.125 28.125 26.865 28.125 25.3125V21.9375C28.125 21.4899 28.3028 21.0607 28.6193 20.7443C28.9357 20.4278 29.3649 20.25 29.8125 20.25C30.2601 20.25 30.6893 20.4278 31.0057 20.7443C31.3222 21.0607 31.5 21.4899 31.5 21.9375V25.3125C31.5 26.9535 30.8481 28.5273 29.6877 29.6877C28.5273 30.8481 26.9535 31.5 25.3125 31.5H10.6875C9.04647 31.5 7.47266 30.8481 6.31228 29.6877C5.1519 28.5273 4.5 26.9535 4.5 25.3125V10.6875C4.5 9.04647 5.1519 7.47266 6.31228 6.31228C7.47266 5.1519 9.04647 4.5 10.6875 4.5H14.0625C14.5101 4.5 14.9393 4.67779 15.2557 4.99426C15.5722 5.31072 15.75 5.73995 15.75 6.1875C15.75 6.63505 15.5722 7.06428 15.2557 7.38074C14.9393 7.69721 14.5101 7.875 14.0625 7.875H10.6875ZM18 6.1875C18 5.73995 18.1778 5.31072 18.4943 4.99426C18.8107 4.67779 19.2399 4.5 19.6875 4.5H29.8125C30.2601 4.5 30.6893 4.67779 31.0057 4.99426C31.3222 5.31072 31.5 5.73995 31.5 6.1875V16.3125C31.5 16.7601 31.3222 17.1893 31.0057 17.5057C30.6893 17.8222 30.2601 18 29.8125 18C29.3649 18 28.9357 17.8222 28.6193 17.5057C28.3028 17.1893 28.125 16.7601 28.125 16.3125V10.2622L20.88 17.5073C20.7243 17.6683 20.538 17.7968 20.3321 17.8852C20.1261 17.9735 19.9047 18.0199 19.6806 18.0218C19.4566 18.0236 19.2344 17.9808 19.027 17.8959C18.8197 17.8109 18.6313 17.6855 18.473 17.527C18.3146 17.3685 18.1894 17.18 18.1046 16.9726C18.0199 16.7652 17.9773 16.543 17.9793 16.3189C17.9814 16.0948 18.028 15.8734 18.1166 15.6676C18.2051 15.4617 18.3338 15.2756 18.495 15.12L25.74 7.875H19.6875C19.2399 7.875 18.8107 7.69721 18.4943 7.38074C18.1778 7.06428 18 6.63505 18 6.1875Z" fill="white"/>
</svg>